<svg width="25" height="25" viewBox="0 0 25 25" fill="none" xmlns="http://www.w3.org/2000/svg">
<g clip-path="url(#clip0_216_2865)">
<path d="M7.86475 22.656C17.2964 22.656 22.4565 14.8401 22.4565 8.06422C22.4565 7.8445 22.4517 7.61989 22.4419 7.40016C23.4457 6.67423 24.312 5.77505 25 4.74489C24.0651 5.16083 23.0725 5.43248 22.0562 5.55055C23.1263 4.90907 23.9276 3.90132 24.3115 2.71413C23.3047 3.31078 22.2037 3.73167 21.0557 3.95876C20.2821 3.13683 19.2594 2.59262 18.1455 2.41026C17.0316 2.2279 15.8887 2.41755 14.8935 2.94989C13.8982 3.48223 13.106 4.3276 12.6394 5.35532C12.1728 6.38303 12.0577 7.53584 12.312 8.63551C10.2734 8.53321 8.2791 8.00364 6.45831 7.08114C4.63753 6.15863 3.03093 4.86378 1.74268 3.28053C1.08792 4.40942 0.887559 5.74525 1.18232 7.01655C1.47709 8.28785 2.24486 9.39921 3.32959 10.1248C2.51524 10.0989 1.71872 9.87966 1.00586 9.48512V9.5486C1.00513 10.7333 1.41469 11.8816 2.16491 12.7985C2.91513 13.7154 3.95971 14.3441 5.12109 14.5779C4.36672 14.7843 3.57498 14.8144 2.80713 14.6658C3.13485 15.6846 3.77247 16.5757 4.63101 17.2147C5.48955 17.8537 6.52617 18.2087 7.59619 18.2302C5.77961 19.6572 3.5356 20.4312 1.22559 20.4275C0.815924 20.4269 0.406666 20.4018 0 20.3523C2.34673 21.8579 5.07659 22.6575 7.86475 22.656Z" fill="#F1A002"/>
</g>
<defs>
<clipPath id="clip0_216_2865">
<rect width="25" height="25" fill="white"/>
</clipPath>
</defs>
</svg>
