<svg width="44" height="52" viewBox="0 0 44 52" fill="none" xmlns="http://www.w3.org/2000/svg">
<path d="M31.9245 12.4285C30.5588 12.4285 29.286 12.6239 28.106 13.0148C26.9261 13.4056 25.8517 13.7956 24.883 14.1848C23.9142 14.5739 23.0748 14.7694 22.3646 14.7711C21.2266 14.7711 19.9246 14.4009 18.4587 13.6605C16.9929 12.9201 15.3641 12.5499 13.5723 12.5499C11.3253 12.5499 9.16291 13.1353 7.08523 14.3062C5.00755 15.4771 3.30772 17.192 1.98572 19.4511C0.663728 21.7102 0.00182093 24.4945 0 27.8039C0 30.8706 0.540815 33.9381 1.62245 37.0065C2.70408 40.0749 4.04155 42.6577 5.63486 44.7549C7.00056 46.5302 8.31618 48.0704 9.58172 49.3756C10.8473 50.6807 12.3341 51.3333 14.0421 51.3333C15.1802 51.3333 16.1616 51.1517 16.9865 50.7884C17.8114 50.425 18.6791 50.0686 19.5895 49.7191C20.5 49.3695 21.6381 49.1948 23.0038 49.1948C24.4259 49.1948 25.564 49.3627 26.418 49.6984C27.272 50.0342 28.0896 50.3768 28.8708 50.7264C29.652 51.0759 30.669 51.2507 31.9218 51.2507C33.7427 51.2507 35.3151 50.5852 36.6389 49.2542C37.9627 47.9232 39.1937 46.4639 40.3317 44.8763C41.6118 43.1011 42.5433 41.473 43.126 39.9922C43.7086 38.5114 44 37.7176 44 37.6109C43.9709 37.6109 43.5939 37.4223 42.8692 37.0452C42.1445 36.6681 41.3123 36.0758 40.3727 35.2683C39.4331 34.4607 38.6082 33.3983 37.8981 32.0811C37.1879 30.7638 36.8319 29.1496 36.8301 27.2383C36.8301 25.0584 37.2926 23.2625 38.2176 21.8506C39.1427 20.4386 40.0814 19.3823 41.0337 18.6815C41.986 17.9807 42.505 17.5769 42.5906 17.4701C41.3669 15.8292 40.0222 14.6592 38.5563 13.9601C37.0905 13.261 35.7457 12.8305 34.5221 12.6687C33.2984 12.5068 32.4307 12.4259 31.919 12.4259L31.9245 12.4285ZM29.9606 8.19009C30.842 7.24822 31.5394 6.15225 32.0529 4.90217C32.5664 3.65209 32.8222 2.36758 32.8204 1.04862C32.8204 0.564775 32.8058 0.215234 32.7767 0C31.3819 0.02755 29.9379 0.417554 28.4447 1.17001C26.9516 1.92247 25.7206 2.83765 24.7519 3.91554C23.9834 4.74893 23.3006 5.77774 22.7033 7.002C22.1061 8.22625 21.8074 9.51077 21.8074 10.8555C21.8074 11.286 21.8502 11.5951 21.9358 11.7828C21.9923 11.7828 22.0915 11.7897 22.2335 11.8034C22.3756 11.8172 22.5322 11.8241 22.7033 11.8241C23.8979 11.8241 25.1853 11.4814 26.5655 10.7961C27.9458 10.1108 29.0766 9.24301 29.9579 8.19267L29.9606 8.19009Z" fill="black"/>
</svg>
