<svg width="50" height="50" viewBox="0 0 50 50" fill="none" xmlns="http://www.w3.org/2000/svg">
<path d="M19.1042 32.4583C18.7083 32.4583 18.3125 32.3125 18 32C17.3958 31.3958 17.3958 30.3958 18 29.7917L29.7917 18C30.3958 17.3958 31.3958 17.3958 32 18C32.6042 18.6042 32.6042 19.6042 32 20.2083L20.2083 32C19.9167 32.3125 19.5 32.4583 19.1042 32.4583Z" fill="#F1A002"/>
<path d="M30.8958 32.4583C30.5 32.4583 30.1042 32.3125 29.7917 32L18 20.2083C17.3958 19.6042 17.3958 18.6042 18 18C18.6042 17.3958 19.6042 17.3958 20.2083 18L32 29.7917C32.6042 30.3958 32.6042 31.3958 32 32C31.6875 32.3125 31.2917 32.4583 30.8958 32.4583Z" fill="#F1A002"/>
<path d="M31.2493 47.3959H18.7493C7.43685 47.3959 2.60352 42.5626 2.60352 31.2501V18.7501C2.60352 7.43758 7.43685 2.60425 18.7493 2.60425H31.2493C42.5618 2.60425 47.3952 7.43758 47.3952 18.7501V31.2501C47.3952 42.5626 42.5618 47.3959 31.2493 47.3959ZM18.7493 5.72925C9.14518 5.72925 5.72852 9.14591 5.72852 18.7501V31.2501C5.72852 40.8542 9.14518 44.2709 18.7493 44.2709H31.2493C40.8535 44.2709 44.2702 40.8542 44.2702 31.2501V18.7501C44.2702 9.14591 40.8535 5.72925 31.2493 5.72925H18.7493Z" fill="#F1A002"/>
</svg>
