<svg width="23" height="24" viewBox="0 0 23 24" fill="none" xmlns="http://www.w3.org/2000/svg">
<path d="M10.4384 2H8.54066C3.79621 2 1.89844 4 1.89844 9V15C1.89844 20 3.79621 22 8.54066 22H14.234C18.9784 22 20.8762 20 20.8762 15V13" stroke="#363636" stroke-width="1.5" stroke-linecap="round" stroke-linejoin="round"/>
<path d="M15.221 3.02025L7.74372 10.9003C7.45905 11.2003 7.17438 11.7903 7.11745 12.2203L6.70943 15.2303C6.55761 16.3203 7.28825 17.0803 8.32254 16.9303L11.1787 16.5003C11.5772 16.4403 12.1371 16.1403 12.4312 15.8403L19.9085 7.96025C21.1989 6.60025 21.8062 5.02025 19.9085 3.02025C18.0107 1.02025 16.5114 1.66025 15.221 3.02025Z" stroke="#363636" stroke-width="1.5" stroke-miterlimit="10" stroke-linecap="round" stroke-linejoin="round"/>
<path d="M14.1484 4.15039C14.7842 6.54039 16.5586 8.41039 18.8359 9.09039" stroke="#363636" stroke-width="1.5" stroke-miterlimit="10" stroke-linecap="round" stroke-linejoin="round"/>
</svg>
