<svg width="19" height="19" viewBox="0 0 19 19" fill="none" xmlns="http://www.w3.org/2000/svg">
<g clip-path="url(#clip0_216_4675)">
<path d="M9.71875 1.48828V17.668" stroke="#F1A002" stroke-width="1.47088" stroke-linecap="round" stroke-linejoin="round"/>
<path d="M13.3965 4.43164H7.88068C7.198 4.43164 6.54329 4.70283 6.06056 5.18556C5.57783 5.66829 5.30664 6.323 5.30664 7.00568C5.30664 7.68836 5.57783 8.34307 6.06056 8.8258C6.54329 9.30853 7.198 9.57972 7.88068 9.57972H11.5579C12.2406 9.57972 12.8953 9.85091 13.378 10.3336C13.8607 10.8164 14.1319 11.4711 14.1319 12.1538C14.1319 12.8364 13.8607 13.4912 13.378 13.9739C12.8953 14.4566 12.2406 14.7278 11.5579 14.7278H5.30664" stroke="#F1A002" stroke-width="1.47088" stroke-linecap="round" stroke-linejoin="round"/>
</g>
<defs>
<clipPath id="clip0_216_4675">
<rect width="17.6506" height="17.6506" fill="white" transform="translate(0.894531 0.753906)"/>
</clipPath>
</defs>
</svg>
