<svg width="19" height="19" viewBox="0 0 19 19" fill="none" xmlns="http://www.w3.org/2000/svg">
<g clip-path="url(#clip0_216_4665)">
<path d="M12.1253 2.99414H1.09375V12.5549H12.1253V2.99414Z" stroke="#F1A002" stroke-width="1.47088" stroke-linecap="round" stroke-linejoin="round"/>
<path d="M12.127 6.67188H15.0687L17.275 8.87819V12.5554H12.127V6.67188Z" stroke="#F1A002" stroke-width="1.47088" stroke-linecap="round" stroke-linejoin="round"/>
<path d="M4.40501 16.2319C5.42044 16.2319 6.24361 15.4087 6.24361 14.3933C6.24361 13.3779 5.42044 12.5547 4.40501 12.5547C3.38958 12.5547 2.56641 13.3779 2.56641 14.3933C2.56641 15.4087 3.38958 16.2319 4.40501 16.2319Z" stroke="#F1A002" stroke-width="1.47088" stroke-linecap="round" stroke-linejoin="round"/>
<path d="M13.9656 16.2319C14.981 16.2319 15.8042 15.4087 15.8042 14.3933C15.8042 13.3779 14.981 12.5547 13.9656 12.5547C12.9501 12.5547 12.127 13.3779 12.127 14.3933C12.127 15.4087 12.9501 16.2319 13.9656 16.2319Z" stroke="#F1A002" stroke-width="1.47088" stroke-linecap="round" stroke-linejoin="round"/>
</g>
<defs>
<clipPath id="clip0_216_4665">
<rect width="17.6506" height="17.6506" fill="white" transform="translate(0.359375 0.787109)"/>
</clipPath>
</defs>
</svg>
