<svg width="40" height="40" viewBox="0 0 40 40" fill="none" xmlns="http://www.w3.org/2000/svg">
<path d="M9.10008 30.8165V25.9498C9.10008 24.3332 10.3667 22.8832 12.1667 22.8832C13.7834 22.8832 15.2334 24.1498 15.2334 25.9498V30.6332C15.2334 33.8832 12.5334 36.5832 9.28341 36.5832C6.03341 36.5832 3.33341 33.8665 3.33341 30.6332V20.3665C3.15008 10.9998 10.5501 3.4165 19.9167 3.4165C29.2834 3.4165 36.6667 10.9998 36.6667 20.1832V30.4498C36.6667 33.6998 33.9667 36.3998 30.7167 36.3998C27.4667 36.3998 24.7667 33.6998 24.7667 30.4498V25.7665C24.7667 24.1498 26.0334 22.6998 27.8334 22.6998C29.4501 22.6998 30.9001 23.9665 30.9001 25.7665V30.8165" stroke="white" stroke-width="2.5" stroke-linecap="round" stroke-linejoin="round"/>
</svg>
