<svg width="40" height="40" viewBox="0 0 40 40" fill="none" xmlns="http://www.w3.org/2000/svg">
<path d="M3.33203 3.3335H6.23204C8.03204 3.3335 9.4487 4.8835 9.2987 6.66683L7.91536 23.2668C7.68203 25.9835 9.83202 28.3168 12.5654 28.3168H30.3154C32.7154 28.3168 34.8154 26.3502 34.9987 23.9668L35.8987 11.4668C36.0987 8.70017 33.9987 6.45015 31.2154 6.45015H9.69871" stroke="white" stroke-width="2.5" stroke-miterlimit="10" stroke-linecap="round" stroke-linejoin="round"/>
<path d="M27.0833 36.6667C28.2339 36.6667 29.1667 35.7339 29.1667 34.5833C29.1667 33.4327 28.2339 32.5 27.0833 32.5C25.9327 32.5 25 33.4327 25 34.5833C25 35.7339 25.9327 36.6667 27.0833 36.6667Z" stroke="white" stroke-width="2.5" stroke-miterlimit="10" stroke-linecap="round" stroke-linejoin="round"/>
<path d="M13.7513 36.6667C14.9019 36.6667 15.8346 35.7339 15.8346 34.5833C15.8346 33.4327 14.9019 32.5 13.7513 32.5C12.6007 32.5 11.668 33.4327 11.668 34.5833C11.668 35.7339 12.6007 36.6667 13.7513 36.6667Z" stroke="white" stroke-width="2.5" stroke-miterlimit="10" stroke-linecap="round" stroke-linejoin="round"/>
<path d="M15 13.3335H35" stroke="white" stroke-width="2.5" stroke-miterlimit="10" stroke-linecap="round" stroke-linejoin="round"/>
</svg>
