<svg width="23" height="24" viewBox="0 0 23 24" fill="none" xmlns="http://www.w3.org/2000/svg">
<path d="M19.9257 5.98047C16.7659 5.65047 13.5871 5.48047 10.4178 5.48047C8.53903 5.48047 6.66023 5.58047 4.78144 5.78047L2.8457 5.98047" stroke="#363636" stroke-width="1.5" stroke-linecap="round" stroke-linejoin="round"/>
<path d="M8.06641 4.97L8.27516 3.66C8.42698 2.71 8.54085 2 10.1445 2H12.6306C14.2342 2 14.3575 2.75 14.4999 3.67L14.7086 4.97" stroke="#363636" stroke-width="1.5" stroke-linecap="round" stroke-linejoin="round"/>
<path d="M17.8865 9.13965L17.2697 19.2096C17.1653 20.7796 17.0799 21.9996 14.4325 21.9996H8.34067C5.69327 21.9996 5.60787 20.7796 5.5035 19.2096L4.88672 9.13965" stroke="#363636" stroke-width="1.5" stroke-linecap="round" stroke-linejoin="round"/>
<path d="M9.80273 16.5H12.9625" stroke="#363636" stroke-width="1.5" stroke-linecap="round" stroke-linejoin="round"/>
<path d="M9.01367 12.5H13.7581" stroke="#363636" stroke-width="1.5" stroke-linecap="round" stroke-linejoin="round"/>
</svg>
