<svg width="40" height="40" viewBox="0 0 40 40" fill="none" xmlns="http://www.w3.org/2000/svg">
<path d="M21.6656 24.5835H19.999C19.3156 24.5835 18.749 24.0168 18.749 23.3335C18.749 22.6502 19.3156 22.0835 19.999 22.0835H21.6656C22.8156 22.0835 23.749 21.1502 23.749 20.0002V4.5835H9.99898C8.03231 4.5835 6.23227 5.65013 5.2656 7.3668C4.93227 7.9668 4.16567 8.18353 3.56567 7.8502C2.96567 7.51687 2.74894 6.75017 3.08227 6.15017C4.48227 3.65017 7.13231 2.0835 9.99898 2.0835H24.999C25.6823 2.0835 26.249 2.65016 26.249 3.3335V20.0002C26.249 22.5335 24.199 24.5835 21.6656 24.5835Z" fill="white"/>
<path d="M31.6654 34.5835H29.9987C29.3154 34.5835 28.7487 34.0168 28.7487 33.3335C28.7487 32.1835 27.8154 31.2502 26.6654 31.2502C25.5154 31.2502 24.582 32.1835 24.582 33.3335C24.582 34.0168 24.0154 34.5835 23.332 34.5835H16.6654C15.982 34.5835 15.4154 34.0168 15.4154 33.3335C15.4154 32.1835 14.482 31.2502 13.332 31.2502C12.182 31.2502 11.2487 32.1835 11.2487 33.3335C11.2487 34.0168 10.682 34.5835 9.9987 34.5835H8.33203C4.88203 34.5835 2.08203 31.7835 2.08203 28.3335C2.08203 27.6502 2.6487 27.0835 3.33203 27.0835C4.01536 27.0835 4.58203 27.6502 4.58203 28.3335C4.58203 30.4002 6.26536 32.0835 8.33203 32.0835H8.91532C9.46532 30.1668 11.232 28.7502 13.332 28.7502C15.432 28.7502 17.1987 30.1668 17.7487 32.0835H22.2653C22.8153 30.1668 24.582 28.7502 26.682 28.7502C28.782 28.7502 30.5487 30.1668 31.0987 32.0835H31.6654C33.732 32.0835 35.4154 30.4002 35.4154 28.3335V24.5835H31.6654C30.0654 24.5835 28.7487 23.2668 28.7487 21.6668V16.6668C28.7487 15.0668 30.0487 13.7502 31.6654 13.7502L29.882 10.6335C29.5154 9.9835 28.8154 9.5835 28.0654 9.5835H26.2487V20.0002C26.2487 22.5335 24.1987 24.5835 21.6654 24.5835H19.9987C19.3154 24.5835 18.7487 24.0168 18.7487 23.3335C18.7487 22.6502 19.3154 22.0835 19.9987 22.0835H21.6654C22.8154 22.0835 23.7487 21.1502 23.7487 20.0002V8.3335C23.7487 7.65016 24.3154 7.0835 24.9987 7.0835H28.0654C29.7154 7.0835 31.232 7.96685 32.0487 9.40019L34.8987 14.3835C35.1154 14.7668 35.1154 15.2502 34.8987 15.6335C34.682 16.0168 34.2653 16.2502 33.8153 16.2502H31.6654C31.432 16.2502 31.2487 16.4335 31.2487 16.6668V21.6668C31.2487 21.9002 31.432 22.0835 31.6654 22.0835H36.6654C37.3487 22.0835 37.9154 22.6502 37.9154 23.3335V28.3335C37.9154 31.7835 35.1154 34.5835 31.6654 34.5835Z" fill="white"/>
<path d="M13.3333 37.9167C10.8 37.9167 8.75 35.8667 8.75 33.3333C8.75 30.8 10.8 28.75 13.3333 28.75C15.8667 28.75 17.9167 30.8 17.9167 33.3333C17.9167 35.8667 15.8667 37.9167 13.3333 37.9167ZM13.3333 31.25C12.1833 31.25 11.25 32.1833 11.25 33.3333C11.25 34.4833 12.1833 35.4167 13.3333 35.4167C14.4833 35.4167 15.4167 34.4833 15.4167 33.3333C15.4167 32.1833 14.4833 31.25 13.3333 31.25Z" fill="white"/>
<path d="M26.6654 37.9167C24.132 37.9167 22.082 35.8667 22.082 33.3333C22.082 30.8 24.132 28.75 26.6654 28.75C29.1987 28.75 31.2487 30.8 31.2487 33.3333C31.2487 35.8667 29.1987 37.9167 26.6654 37.9167ZM26.6654 31.25C25.5154 31.25 24.582 32.1833 24.582 33.3333C24.582 34.4833 25.5154 35.4167 26.6654 35.4167C27.8154 35.4167 28.7487 34.4833 28.7487 33.3333C28.7487 32.1833 27.8154 31.25 26.6654 31.25Z" fill="white"/>
<path d="M36.6667 24.5833H31.6667C30.0667 24.5833 28.75 23.2667 28.75 21.6667V16.6667C28.75 15.0667 30.0667 13.75 31.6667 13.75H33.8166C34.2666 13.75 34.6833 13.9833 34.9 14.3833L37.75 19.3833C37.85 19.5667 37.9167 19.7833 37.9167 20V23.3333C37.9167 24.0167 37.35 24.5833 36.6667 24.5833ZM31.6667 16.25C31.4333 16.25 31.25 16.4333 31.25 16.6667V21.6667C31.25 21.9 31.4333 22.0833 31.6667 22.0833H35.4167V20.3334L33.0833 16.25H31.6667Z" fill="white"/>
<path d="M13.332 14.5835H3.33203C2.6487 14.5835 2.08203 14.0168 2.08203 13.3335C2.08203 12.6502 2.6487 12.0835 3.33203 12.0835H13.332C14.0154 12.0835 14.582 12.6502 14.582 13.3335C14.582 14.0168 14.0154 14.5835 13.332 14.5835Z" fill="white"/>
<path d="M9.9987 19.5835H3.33203C2.6487 19.5835 2.08203 19.0168 2.08203 18.3335C2.08203 17.6502 2.6487 17.0835 3.33203 17.0835H9.9987C10.682 17.0835 11.2487 17.6502 11.2487 18.3335C11.2487 19.0168 10.682 19.5835 9.9987 19.5835Z" fill="white"/>
<path d="M6.66536 24.5835H3.33203C2.6487 24.5835 2.08203 24.0168 2.08203 23.3335C2.08203 22.6502 2.6487 22.0835 3.33203 22.0835H6.66536C7.3487 22.0835 7.91536 22.6502 7.91536 23.3335C7.91536 24.0168 7.3487 24.5835 6.66536 24.5835Z" fill="white"/>
</svg>
